<?xml version="1.0" encoding="utf-8"?>
<!-- Generator: Avocode 2.4.5 - http://avocode.com -->
<svg height="12" width="13" xmlns:xlink="http://www.w3.org/1999/xlink" xmlns="http://www.w3.org/2000/svg" viewBox="0 0 13 12">
    <path fill="#e1e1e1" fill-rule="evenodd" d="M 13 5.57 C 13 3.1 11.19 1.25 9.13 0.47 C 8.28 0.15 7.38 0 6.5 0 C 5.6 0 4.71 0.15 3.86 0.47 C 1.81 1.26 0 3.1 0 5.57 C 0 6.75 0.46 7.87 1.17 8.76 C 1.1 9.87 0.61 11.11 0 12 L 3.94 10.73 L 3.91 10.68 C 4.75 11 5.62 11.15 6.5 11.15 C 7.38 11.15 8.28 11 9.13 10.68 C 11.19 9.89 13 8.04 13 5.57 L 13 5.57 Z M 13 5.57" />
</svg>